<?xml version="1.0" standalone="no"?>
<!DOCTYPE svg PUBLIC "-//W3C//DTD SVG 20010904//EN"
 "http://www.w3.org/TR/2001/REC-SVG-20010904/DTD/svg10.dtd">
<svg version="1.0" xmlns="http://www.w3.org/2000/svg"
 width="700.000000pt" height="700.000000pt" viewBox="0 0 700.000000 700.000000"
 preserveAspectRatio="xMidYMid meet">
<metadata>
Created by potrace 1.14, written by Peter Selinger 2001-2017
</metadata>
<g transform="translate(0.000000,700.000000) scale(0.100000,-0.100000)"
fill="#000000" stroke="none">
<path d="M2018 5769 c-109 -17 -224 -99 -276 -198 -12 -24 -28 -75 -34 -112
-22 -129 21 -251 121 -340 75 -67 143 -92 251 -93 75 0 93 4 151 31 82 38 146
100 184 176 l28 58 41 -5 c47 -7 141 -24 226 -41 14 -2 41 -7 60 -10 19 -3 46
-7 60 -10 14 -3 39 -7 55 -10 17 -3 41 -7 55 -10 14 -3 77 -14 140 -25 63 -11
132 -24 152 -29 20 -5 39 -7 42 -4 2 3 10 -13 17 -36 23 -78 89 -130 171 -136
66 -5 122 18 162 66 33 39 31 39 111 22 34 -6 115 -21 180 -32 66 -12 131 -23
145 -26 14 -3 66 -12 115 -21 130 -22 137 -23 165 -29 27 -6 44 -9 141 -25
l65 -11 12 -58 c13 -62 51 -142 84 -178 l20 -21 -113 -134 c-63 -73 -121 -140
-129 -148 -23 -24 -260 -298 -385 -444 -27 -33 -55 -64 -60 -70 -11 -11 -183
-209 -225 -258 -22 -26 -25 -27 -41 -12 -10 9 -37 21 -60 28 -83 25 -177 -15
-223 -93 -38 -66 -24 -171 30 -225 15 -15 13 -20 -21 -62 -21 -25 -45 -53 -54
-62 -9 -10 -41 -46 -71 -82 -30 -36 -60 -69 -66 -75 -6 -5 -37 -41 -70 -80
-32 -38 -61 -72 -64 -75 -3 -3 -32 -36 -65 -75 -33 -38 -64 -75 -70 -81 -5 -6
-32 -37 -60 -69 -74 -86 -126 -145 -165 -188 l-35 -38 -45 16 c-175 63 -378
-22 -462 -193 -30 -61 -33 -74 -33 -162 0 -82 4 -103 27 -152 98 -210 351
-288 543 -167 63 40 110 91 138 151 12 27 27 48 34 48 7 0 106 -18 220 -41
115 -23 219 -43 233 -45 14 -3 32 -7 40 -9 8 -3 31 -7 50 -10 78 -12 94 -20
101 -51 27 -133 172 -199 290 -132 22 12 39 24 39 27 1 3 11 18 23 34 l23 27
298 -59 c164 -33 299 -61 301 -63 2 -2 6 -31 9 -65 22 -235 241 -392 466 -335
303 76 385 477 136 661 -76 57 -136 76 -231 75 -147 -2 -268 -76 -330 -201
-16 -32 -29 -59 -30 -60 -1 -2 -35 4 -76 13 -41 9 -85 18 -99 20 -14 2 -45 9
-70 14 -25 5 -56 12 -70 14 -14 3 -56 11 -95 19 -38 9 -83 18 -100 20 -73 13
-95 20 -95 33 0 8 0 16 0 19 1 19 -36 85 -62 112 -81 84 -226 70 -294 -29 -22
-31 -31 -37 -53 -33 -14 3 -42 8 -61 11 -19 3 -132 26 -251 50 -119 24 -233
46 -255 50 -52 8 -50 7 -51 56 -2 65 -21 139 -48 180 -14 21 -25 41 -25 44 0
4 -16 20 -35 37 l-35 29 20 26 c11 14 42 50 69 81 27 31 66 76 87 101 22 25
51 59 65 75 15 17 77 89 139 160 62 72 124 144 139 160 14 17 69 80 121 140
52 61 100 115 106 122 7 7 30 11 55 9 83 -6 159 38 191 112 17 37 19 58 14
111 -6 66 -5 66 32 106 20 22 50 56 66 75 16 19 55 64 86 100 61 69 209 240
399 460 64 74 125 144 136 156 11 12 56 63 100 115 124 146 112 136 138 120
46 -30 138 -50 206 -46 216 11 379 209 350 425 -38 276 -355 417 -584 259 -75
-51 -137 -138 -150 -211 -6 -30 -11 -36 -28 -33 -24 4 -190 34 -222 40 -11 2
-38 6 -60 9 -22 3 -51 8 -65 11 -52 11 -445 82 -490 88 -21 3 -26 11 -31 49
-13 89 -79 154 -166 165 -86 10 -174 -37 -203 -108 -15 -35 20 -38 -310 22
-118 21 -231 41 -250 44 -19 4 -91 16 -159 28 l-125 22 -3 49 c-7 103 -43 184
-113 252 -41 40 -110 83 -143 90 -10 2 -28 6 -38 9 -31 10 -89 12 -141 4z"/>
</g>
</svg>
