<?xml version="1.0" encoding="utf-8" ?>
<svg baseProfile="full" height="100%" version="1.1" viewBox="0,0,1000,120" width="100%" xmlns="http://www.w3.org/2000/svg" xmlns:ev="http://www.w3.org/2001/xml-events" xmlns:xlink="http://www.w3.org/1999/xlink"><defs /><rect fill="none" height="120" width="1000" x="0" y="0" /><path d="M0,0 M335.0599365234375,57.68283462524414 L334.78594970703125,57.29499053955078 L334.2611999511719,56.753211975097656 L333.4679260253906,56.23584747314453 L332.4761657714844,56.01844787597656 L331.3409118652344,56.228939056396484 L330.1439514160156,56.913787841796875 L329.0110778808594,58.03134536743164 L328.0924072265625,59.47039031982422 L327.53131103515625,61.05888366699219 L327.4259948730469,62.59608840942383 L327.7891845703125,63.882904052734375 L328.5462341308594,64.75350189208984 L329.5893249511719,65.10489654541016 L330.78057861328125,64.88137817382812 L331.98858642578125,64.10810089111328 L333.10015869140625,62.87445831298828 L334.0346374511719,61.323143005371094 L334.7297668457031,59.63416290283203 L335.1844787597656,58.00907897949219 L335.42218017578125,56.611759185791016 L335.48651123046875,55.591163635253906 L335.4493408203125,55.07154083251953 L335.402099609375,55.12986373901367 L335.4088439941406,55.80418395996094 L335.5288391113281,57.08860778808594 L335.7768859863281,58.89863967895508 L336.1293640136719,61.136146545410156 L336.5271301269531,63.69913101196289 L336.89752197265625,66.46195220947266 L337.14300537109375,69.28298950195312 L337.1837158203125,71.99799346923828 L336.9692687988281,74.433837890625 L336.4853820800781,76.45484924316406 L335.7501525878906,77.9798812866211 L334.830322265625,78.97611999511719 L333.8135070800781,79.44654846191406 L332.7975769042969,79.40853881835938 L331.8927001953125,78.89503479003906 L331.1824035644531,77.97059631347656 L330.78533935546875,76.63292694091797 L330.7782897949219,74.95890808105469 L331.1630859375,73.0881118774414 L331.6811218261719,71.49764251708984 L332.11627197265625,70.46076965332031 M342.7500915527344,54.34455490112305 L342.8202819824219,54.44591522216797 L342.9642639160156,54.80501937866211 L343.1825256347656,55.56787872314453 L343.4636535644531,56.812923431396484 L343.8114013671875,58.518131256103516 L344.2180480957031,60.59524154663086 L344.65325927734375,62.92769241333008 L345.0854187011719,65.4015884399414 L345.43365478515625,67.88744354248047 L345.6290283203125,70.2536392211914 L345.6159362792969,72.3700180053711 L345.3571472167969,74.10999298095703 L344.8525085449219,75.39675903320312 L344.12451171875,76.18646240234375 L343.21038818359375,76.48831176757812 L342.1532897949219,76.25636291503906 L341.03265380859375,75.5113525390625 L339.9456787109375,74.3322982788086 L339.1120910644531,73.1679916381836 L338.615966796875,72.32579803466797 M339.6457214355469,45.0 L339.7421875,45.04427719116211 L339.9402160644531,45.19611358642578 L340.1653137207031,45.394432067871094 L340.3430480957031,45.578155517578125 M352.8629455566406,59.37788391113281 L352.7217102050781,58.975120544433594 L352.3938293457031,58.341949462890625 L351.8332214355469,57.633506774902344 L351.04638671875,57.1195068359375 L350.0834045410156,56.965946197509766 L349.0392150878906,57.2753791809082 L348.031494140625,58.04621505737305 L347.19610595703125,59.208656311035156 L346.653564453125,60.6351318359375 L346.4674987792969,62.14124298095703 L346.6507873535156,63.5328254699707 L347.1624755859375,64.62542724609375 L347.9425354003906,65.27639770507812 L348.9080810546875,65.39574432373047 L349.96234130859375,64.96072387695312 L350.99517822265625,64.01608276367188 L351.897216796875,62.67990493774414 L352.59539794921875,61.1350212097168 L353.08062744140625,59.615333557128906 L353.3665771484375,58.32928466796875 L353.48907470703125,57.42945861816406 L353.4883728027344,57.01634979248047 L353.4010314941406,57.126461029052734 L353.2890625,57.775630950927734 L353.220947265625,58.94157409667969 L353.2655029296875,60.51247787475586 L353.4520263671875,62.283416748046875 L353.82928466796875,64.00174713134766 L354.3982849121094,65.407958984375 L355.13323974609375,66.35305786132812 L355.80706787109375,66.84160614013672 L356.2793273925781,67.00485229492188 M362.93414306640625,57.68022537231445 L362.75384521484375,57.2685546875 L362.3479919433594,56.702754974365234 L361.65533447265625,56.17510223388672 L360.6979675292969,55.976295471191406 L359.5559387207031,56.224769592285156 L358.386474609375,56.94498062133789 L357.3488464355469,58.0289192199707 L356.63330078125,59.32835388183594 L356.3566589355469,60.63975143432617 L356.5690612792969,61.773399353027344 L357.253173828125,62.56959533691406 L358.3260192871094,62.90009689331055 L359.640380859375,62.69489669799805 L361.0671081542969,61.96413803100586 L362.4342346191406,60.80425262451172 L363.5838317871094,59.406280517578125 L364.40252685546875,57.99654769897461 L364.850830078125,56.77391815185547 L364.9623107910156,55.9040641784668 L364.8382568359375,55.50045394897461 L364.580322265625,55.637508392333984 L364.28460693359375,56.36972427368164 L364.03411865234375,57.68994903564453 L363.9220886230469,59.513450622558594 L364.005859375,61.71565246582031 L364.2904052734375,64.14281463623047 L364.71295166015625,66.6335678100586 L365.173095703125,69.0403060913086 L365.5445556640625,71.21026611328125 L365.7344665527344,73.00048828125 L365.67822265625,74.33226013183594 L365.34686279296875,75.1759033203125 L364.74090576171875,75.5499038696289 L363.90447998046875,75.50743103027344 L362.901611328125,75.10518646240234 L361.84747314453125,74.33267211914062 L360.8919677734375,73.25523376464844 L360.1625061035156,71.9781494140625 L359.7243347167969,70.86131286621094 L359.5397644042969,70.12661743164062 M370.07183837890625,55.870887756347656 L370.1348876953125,55.43486022949219 L370.2412109375,54.861610412597656 L370.37176513671875,54.352569580078125 L370.50360107421875,54.17917251586914 L370.6394958496094,54.41919708251953 L370.79071044921875,55.1097297668457 L371.00177001953125,56.23037338256836 L371.2977294921875,57.774147033691406 L371.6792907714844,59.69442367553711 L372.13555908203125,61.9185905456543 L372.6132507324219,64.36270141601562 L373.0323791503906,66.92446899414062 L373.3082275390625,69.47103881835938 L373.35235595703125,71.8631591796875 L373.10638427734375,73.95692443847656 L372.5636291503906,75.63459014892578 L371.7486572265625,76.82611083984375 L370.72601318359375,77.4939193725586 L369.5838623046875,77.65100860595703 L368.4282531738281,77.23721313476562 L367.3844909667969,76.2735366821289 L366.56207275390625,74.8642807006836 L366.03936767578125,73.5099105834961 L365.7917785644531,72.5500717163086 M369.18182373046875,49.71088409423828 M375.88153076171875,52.28197479248047 L375.9752502441406,52.026920318603516 L376.11163330078125,51.69060516357422 L376.21795654296875,51.394500732421875 L376.19842529296875,51.32671356201172 L375.9904479980469,51.57244110107422 L375.64208984375,52.18843078613281 L375.2579650878906,53.16171646118164 L374.955810546875,54.4732780456543 L374.81488037109375,56.027015686035156 L374.8858337402344,57.714874267578125 L375.172607421875,59.419822692871094 L375.6737365722656,61.041595458984375 L376.35284423828125,62.49064636230469 L377.150390625,63.731590270996094 L377.9827575683594,64.72905731201172 L378.7771301269531,65.4783706665039 L379.464599609375,65.9984130859375 L379.9826965332031,66.31489562988281 L380.2999267578125,66.47422790527344 L380.4027099609375,66.55184173583984 L380.3094482421875,66.607666015625 L380.0564270019531,66.67425537109375 L379.6834716796875,66.76811981201172 L379.229736328125,66.8763427734375 L378.7459716796875,66.99506378173828 L378.26171875,67.1255111694336 L377.7928161621094,67.2647933959961 L377.3160400390625,67.36285400390625 L376.8108215332031,67.37271881103516 L376.28753662109375,67.26466369628906 L375.857177734375,67.10623168945312 L375.58355712890625,66.96630096435547 M380.53326416015625,58.71937942504883 L380.5140075683594,59.260189056396484 L380.4943542480469,60.19731140136719 L380.47052001953125,61.458683013916016 L380.4721984863281,62.866825103759766 L380.51641845703125,64.3580551147461 L380.6285400390625,65.89081573486328 L380.80072021484375,67.43563842773438 L381.01483154296875,68.92183685302734 L381.216796875,70.2550048828125 L381.3919372558594,71.41545867919922 L381.511962890625,72.25223541259766 L381.58099365234375,72.7400131225586 M380.31768798828125,73.56668853759766 L379.8954772949219,73.43587493896484 L379.167724609375,73.10714721679688 L378.1848449707031,72.54108428955078 L377.10906982421875,71.7716064453125 L376.02044677734375,70.88704681396484 L374.9880065917969,69.95384979248047 L374.05657958984375,69.023193359375 L373.29412841796875,68.09624481201172 L372.7464599609375,67.15837860107422 L372.4610290527344,66.19020080566406 L372.4807434082031,65.1905288696289 L372.824462890625,64.1589126586914 L373.4884338378906,63.132423400878906 L374.44195556640625,62.169864654541016 L375.59857177734375,61.33533477783203 L376.85400390625,60.69316101074219 L378.0931701660156,60.30266189575195 L379.207763671875,60.200504302978516 L380.09759521484375,60.410499572753906 L380.68359375,60.93146896362305 L380.9063720703125,61.7232551574707 L380.7585754394531,62.70968246459961 L380.26727294921875,63.78705978393555 L379.5044250488281,64.85955047607422 L378.5364074707031,65.85710906982422 L377.447509765625,66.73701477050781 L376.3167419433594,67.48445129394531 L375.23712158203125,68.08060455322266 L374.2978515625,68.49887084960938 L373.57293701171875,68.73866271972656 L373.11102294921875,68.83689880371094 L372.88946533203125,68.84928894042969 M385.53515625,60.27058792114258 L385.4176940917969,60.01559829711914 L385.20587158203125,59.69384002685547 L384.8944091796875,59.45452117919922 L384.5149841308594,59.48783493041992 L384.09051513671875,59.867530822753906 L383.697021484375,60.611846923828125 L383.4146728515625,61.65654754638672 L383.33612060546875,62.898921966552734 L383.5063171386719,64.21519470214844 L383.9305725097656,65.4660415649414 L384.56640625,66.554931640625 L385.3753662109375,67.41201782226562 L386.29266357421875,67.99052429199219 L387.2546691894531,68.25079345703125 L388.1854248046875,68.19606018066406 L389.0306091308594,67.85653686523438 L389.7352294921875,67.3056411743164 L390.2906799316406,66.6480712890625 L390.7109680175781,66.00738525390625 L391.01495361328125,65.46985626220703 L391.2202453613281,65.11155700683594 L391.3658447265625,64.98760986328125 L391.45782470703125,65.1395492553711 L391.50634765625,65.62492370605469 L391.52960205078125,66.50602722167969 L391.53094482421875,67.79146575927734 L391.4986877441406,69.45207214355469 L391.42822265625,71.42570495605469 L391.2890625,73.62938690185547 L391.0464782714844,75.98435974121094 L390.6751403808594,78.40843200683594 L390.1551208496094,80.78199768066406 L389.48394775390625,82.96204376220703 L388.67034912109375,84.80744934082031 L387.7492370605469,86.21881866455078 L386.7635498046875,87.13945007324219 L385.7575378417969,87.55265808105469 L384.78363037109375,87.44880676269531 L383.9007568359375,86.84882354736328 L383.1971435546875,85.69284057617188 L382.76983642578125,84.04403686523438 L382.6679382324219,82.05572509765625 L382.7698974609375,80.30313110351562 L382.9356994628906,79.13457489013672 M400.14569091796875,62.51343536376953 L399.97564697265625,62.24422073364258 L399.6331787109375,61.85709762573242 L399.09747314453125,61.4741325378418 L398.3940124511719,61.29861068725586 L397.5340881347656,61.429134368896484 L396.5664367675781,61.92807388305664 L395.58001708984375,62.79119873046875 L394.68804931640625,63.96986770629883 L394.02935791015625,65.35269165039062 L393.7187194824219,66.80635070800781 L393.7952575683594,68.14871215820312 L394.2525329589844,69.21090698242188 L395.0374755859375,69.86385345458984 L396.06402587890625,70.0197525024414 L397.2332763671875,69.6316909790039 L398.43743896484375,68.73509216308594 L399.5488586425781,67.4172134399414 L400.4603576660156,65.84285736083984 L401.0966796875,64.2205581665039 L401.4399719238281,62.752620697021484 L401.508056640625,61.58966064453125 L401.35882568359375,60.83433151245117 L401.0696105957031,60.551109313964844 L400.7159729003906,60.76650619506836 L400.3814392089844,61.460304260253906 L400.15399169921875,62.569217681884766 L400.093505859375,63.969078063964844 L400.2856140136719,65.5191421508789 L400.7541809082031,67.05817413330078 L401.4559020996094,68.42365264892578 L402.137451171875,69.39797973632812 L402.6227111816406,69.93562316894531 M407.2254638671875,61.61949157714844 L407.1809387207031,61.65495300292969 L407.1424560546875,61.86952209472656 L407.14410400390625,62.39131164550781 L407.2240295410156,63.29787826538086 L407.37933349609375,64.5678939819336 L407.61676025390625,66.1631851196289 L407.9122619628906,68.02189636230469 L408.2471008300781,70.09786224365234 L408.5774230957031,72.3321304321289 L408.8383483886719,74.62850952148438 L408.9512939453125,76.85905456542969 L408.8615417480469,78.90444946289062 L408.5234375,80.64745330810547 L407.93988037109375,82.01268005371094 L407.14459228515625,82.97382354736328 L406.1747741699219,83.44618225097656 L405.1219482421875,83.3939208984375 L404.1008605957031,82.84331512451172 L403.3164978027344,82.13291931152344 L402.85614013671875,81.54569244384766 M407.10980224609375,52.10417938232422 L407.1907653808594,52.142093658447266 L407.3594665527344,52.279136657714844 L407.5523376464844,52.459861755371094 L407.70587158203125,52.628822326660156 M418.0511779785156,64.49932861328125 L417.8939514160156,63.9796028137207 L417.557861328125,63.19542694091797 L417.00164794921875,62.32905197143555 L416.23553466796875,61.680946350097656 L415.2913818359375,61.374755859375 L414.25433349609375,61.4867057800293 L413.2119140625,62.011905670166016 L412.2814636230469,62.926876068115234 L411.5648193359375,64.14508819580078 L411.14251708984375,65.52409362792969 L411.0599060058594,66.8775405883789 L411.330810546875,68.0324935913086 L411.91455078125,68.84794616699219 L412.74969482421875,69.2168197631836 L413.76104736328125,69.07597351074219 L414.8778381347656,68.4178237915039 L416.00347900390625,67.30609130859375 L417.0434265136719,65.90094757080078 L417.89031982421875,64.4166259765625 L418.4776916503906,63.065711975097656 L418.79522705078125,62.00495910644531 L418.8942565917969,61.319705963134766 L418.85223388671875,61.05372619628906 L418.753662109375,61.23354721069336 L418.6419982910156,61.85774230957031 L418.5617370605469,62.89724349975586 L418.5321960449219,64.2405776977539 L418.60137939453125,65.7379150390625 L418.8083190917969,67.20095825195312 L419.155517578125,68.46195220947266 L419.5088806152344,69.33349609375 L419.7735290527344,69.80000305175781 M422.451171875,52.03746032714844 L422.5370178222656,52.253997802734375 L422.696044921875,52.808895111083984 L422.9173278808594,53.80463790893555 L423.1552734375,55.229759216308594 L423.3836364746094,57.000389099121094 L423.5724182128906,58.989627838134766 L423.7319030761719,61.062374114990234 L423.87896728515625,63.07045364379883 L424.0299072265625,64.8614501953125 L424.187255859375,66.2976303100586 L424.3698425292969,67.29674530029297 L424.59661865234375,67.80926513671875 L424.91888427734375,67.83303833007812 L425.3875732421875,67.37860870361328 L426.01776123046875,66.5013198852539 L426.7876281738281,65.32516479492188 L427.6541748046875,64.03208923339844 L428.5607604980469,62.807586669921875 L429.45574951171875,61.81631088256836 L430.2840270996094,61.14582443237305 L430.99395751953125,60.841835021972656 L431.5570373535156,60.927642822265625 L431.9546203613281,61.413326263427734 L432.20697021484375,62.28036880493164 L432.33984375,63.46662902832031 L432.386474609375,64.8538589477539 L432.391357421875,66.30549621582031 L432.4395751953125,67.64921569824219 L432.5838317871094,68.73619079589844 L432.8658447265625,69.47018432617188 L433.17462158203125,69.8539810180664 L433.41522216796875,69.98176574707031 M437.99029541015625,60.64383316040039 L438.0600891113281,60.82301330566406 L438.18994140625,61.18928146362305 L438.37371826171875,61.78487777709961 L438.576416015625,62.590972900390625 L438.7853698730469,63.60195541381836 L438.9935607910156,64.80331420898438 L439.2251892089844,66.18914794921875 L439.48681640625,67.73692321777344 L439.7711486816406,69.4385986328125 L440.04449462890625,71.26850891113281 L440.2689208984375,73.19070434570312 L440.38726806640625,75.13987731933594 L440.3687438964844,77.04200744628906 L440.1796569824219,78.80992126464844 L439.8049621582031,80.36741638183594 L439.2625732421875,81.64974975585938 L438.5767822265625,82.60903930664062 L437.77252197265625,83.2062759399414 L436.9000244140625,83.45681762695312 L435.9776916503906,83.30335235595703 L435.05206298828125,82.74134826660156 L434.1974792480469,81.81819152832031 L433.5560607910156,80.8865966796875 L433.17987060546875,80.19876861572266 M437.26300048828125,54.69683837890625 L437.3841552734375,54.72663879394531 L437.59698486328125,54.88470458984375 L437.89581298828125,55.25447082519531 L438.25506591796875,55.88807678222656 L438.6670837402344,56.76056671142578 L439.10125732421875,57.81201934814453 L439.529541015625,58.98081970214844 L439.92218017578125,60.22077560424805 L440.2607727050781,61.474605560302734 L440.56390380859375,62.68092727661133 L440.83831787109375,63.75098419189453 L441.0972595214844,64.6082534790039 L441.36175537109375,65.20970916748047 L441.6398620605469,65.53417205810547 L441.93841552734375,65.5702133178711 L442.27801513671875,65.32017517089844 L442.6551513671875,64.78502655029297 L443.105712890625,64.00349426269531 L443.6742858886719,63.054718017578125 L444.3807373046875,62.018280029296875 L445.2234802246094,60.98839569091797 L446.1685791015625,60.050567626953125 L447.13934326171875,59.2740478515625 L448.0843200683594,58.730186462402344 L448.97222900390625,58.47856140136719 L449.77496337890625,58.543521881103516 L450.48260498046875,58.935638427734375 L451.07977294921875,59.63649368286133 L451.53802490234375,60.60173034667969 L451.86358642578125,61.75710678100586 L452.0823974609375,62.9918212890625 L452.2900390625,64.17900085449219 L452.589111328125,65.19380950927734 L453.0382080078125,65.95484924316406 L453.49560546875,66.41950988769531 L453.844970703125,66.6343765258789 M461.79736328125,60.12242126464844 L461.57037353515625,59.713802337646484 L461.1055908203125,59.15087127685547 L460.37615966796875,58.61640167236328 L459.4307861328125,58.389400482177734 L458.3318786621094,58.57463073730469 L457.1658630371094,59.20695495605469 L456.03912353515625,60.21442413330078 L455.082763671875,61.49164962768555 L454.42108154296875,62.874237060546875 L454.14227294921875,64.20109558105469 L454.2835998535156,65.31275177001953 L454.8326721191406,66.0836410522461 L455.7363586425781,66.42719268798828 L456.9024658203125,66.30631256103516 L458.215087890625,65.73817443847656 L459.53564453125,64.80928039550781 L460.72613525390625,63.640525817871094 L461.68048095703125,62.387367248535156 L462.3541259765625,61.2125358581543 L462.7560729980469,60.253265380859375 L462.93743896484375,59.6097412109375 L462.9649353027344,59.34449768066406 L462.89642333984375,59.47904968261719 L462.78375244140625,60.01175308227539 L462.68731689453125,60.9022102355957 L462.67333984375,62.06425857543945 L462.80419921875,63.38484191894531 L463.09844970703125,64.70814514160156 L463.5147705078125,65.88861846923828 L463.9046630859375,66.73468780517578 L464.1679992675781,67.20130920410156 M468.70648193359375,59.81776809692383 L468.71380615234375,59.96035385131836 L468.741455078125,60.28423309326172 L468.80322265625,60.8498649597168 L468.9038391113281,61.68730163574219 L469.05511474609375,62.81328201293945 L469.2706298828125,64.22265625 L469.5667419433594,65.90117645263672 L469.9444580078125,67.7901611328125 L470.3797607421875,69.82012939453125 L470.7980041503906,71.9094009399414 L471.13311767578125,73.95267486572266 L471.31951904296875,75.83483123779297 L471.3185119628906,77.4590835571289 L471.1039123535156,78.73624420166016 L470.6707458496094,79.63227081298828 L469.9734191894531,80.0748291015625 L469.0506591796875,80.03995513916016 L467.99224853515625,79.56558227539062 L467.0870361328125,78.95547485351562 L466.501953125,78.45482635498047 M467.9016418457031,50.62296676635742 L467.9772033691406,50.659202575683594 L468.11602783203125,50.73744201660156 L468.26678466796875,50.827980041503906 L468.3782958984375,50.90111541748047 M474.35089111328125,50.00215530395508 L474.3321228027344,50.59724426269531 L474.3134460449219,51.67495346069336 L474.31292724609375,53.20161819458008 L474.3574523925781,54.990325927734375 L474.45745849609375,56.9371452331543 L474.62518310546875,58.92990493774414 L474.865966796875,60.854278564453125 L475.16180419921875,62.5534553527832 L475.488037109375,63.890220642089844 L475.8106994628906,64.76846313476562 L476.126708984375,65.12872314453125 L476.4696960449219,64.9589614868164 L476.9063415527344,64.29390716552734 L477.4886474609375,63.22245788574219 L478.2369384765625,61.897125244140625 L479.12567138671875,60.50440216064453 L480.1158447265625,59.210662841796875 L481.1346740722656,58.14352035522461 L482.1219482421875,57.396766662597656 L482.99725341796875,57.02973175048828 L483.69622802734375,57.08760070800781 L484.19427490234375,57.58836364746094 L484.485107421875,58.49443054199219 L484.6064453125,59.75129699707031 L484.6457824707031,61.22184753417969 L484.67529296875,62.72224807739258 L484.71630859375,63.9083366394043 L484.77008056640625,64.6258544921875 M492.60919189453125,58.00400161743164 L492.3909912109375,57.7468147277832 L491.9605712890625,57.43600082397461 L491.294677734375,57.2275390625 L490.447021484375,57.329124450683594 L489.48468017578125,57.822052001953125 L488.4958801269531,58.70531463623047 L487.5945129394531,59.89760208129883 L486.91314697265625,61.271018981933594 L486.54119873046875,62.65211868286133 L486.52618408203125,63.87229537963867 L486.85394287109375,64.79622650146484 L487.44952392578125,65.32268524169922 L488.2410888671875,65.41675567626953 L489.1531982421875,65.06099700927734 L490.1069641113281,64.28404235839844 L491.03436279296875,63.16331481933594 L491.86029052734375,61.81919860839844 L492.516845703125,60.42892074584961 L492.99188232421875,59.1959228515625 L493.27685546875,58.26151657104492 L493.3814697265625,57.70576477050781 L493.34478759765625,57.54856872558594 L493.2013244628906,57.76881790161133 L493.0038757324219,58.368900299072266 L492.83160400390625,59.32218933105469 L492.7379150390625,60.549278259277344 L492.7609558105469,61.92567825317383 L492.99078369140625,63.289634704589844 L493.4573059082031,64.4661865234375 L494.1534423828125,65.34063720703125 L494.8415222167969,65.85858917236328 L495.3407287597656,66.07830047607422 M498.6211853027344,57.204158782958984 L498.5521545410156,57.24673843383789 L498.4845886230469,57.464141845703125 L498.44720458984375,57.96647262573242 L498.48822021484375,58.816131591796875 L498.6312255859375,59.996795654296875 L498.899658203125,61.46485137939453 L499.29681396484375,63.162269592285156 L499.82647705078125,65.05130767822266 L500.41876220703125,67.0814437866211 L500.97900390625,69.17791748046875 L501.4000244140625,71.25472259521484 L501.58544921875,73.20530700683594 L501.4818115234375,74.91991424560547 L501.09771728515625,76.32523345947266 L500.4800109863281,77.37689971923828 L499.69561767578125,78.04569244384766 L498.81787109375,78.31835174560547 L497.91278076171875,78.17575073242188 L497.052490234375,77.63534545898438 L496.32330322265625,76.63422393798828 L495.79730224609375,75.19697570800781 L495.5057373046875,73.42012023925781 L495.4024658203125,71.81985473632812 L495.40325927734375,70.72492218017578 M498.6612548828125,50.07189178466797 L498.742919921875,50.19567108154297 L498.8953857421875,50.48344421386719 L499.1081848144531,50.969581604003906 L499.350830078125,51.64867401123047 L499.6112060546875,52.48899841308594 L499.89483642578125,53.467567443847656 L500.21246337890625,54.55498504638672 L500.58544921875,55.70849609375 L501.0146179199219,56.867469787597656 L501.49176025390625,57.980289459228516 L501.9958190917969,58.995269775390625 L502.5057678222656,59.89794921875 L502.9978942871094,60.66854476928711 L503.46002197265625,61.287174224853516 L503.8656005859375,61.73198699951172 L504.20013427734375,61.99715042114258 L504.4576721191406,62.07850646972656 L504.66064453125,61.997802734375 L504.86236572265625,61.756465911865234 L505.1276550292969,61.361244201660156 L505.49835205078125,60.827449798583984 L505.9976806640625,60.20088195800781 L506.60296630859375,59.541812896728516 L507.24468994140625,58.93220138549805 L507.8548583984375,58.44269561767578 L508.373291015625,58.130592346191406 L508.76654052734375,58.024620056152344 L509.0453796386719,58.14761734008789 L509.23980712890625,58.49060821533203 L509.3779296875,59.035945892333984 L509.5113525390625,59.755462646484375 L509.70751953125,60.608097076416016 L510.0068664550781,61.511051177978516 L510.41571044921875,62.37664031982422 L510.8064880371094,63.030460357666016 L511.08123779296875,63.40946960449219 M513.84814453125,57.426265716552734 L513.8529663085938,57.6107292175293 L513.91455078125,58.048912048339844 L514.0630493164062,58.83375549316406 L514.2962646484375,59.979164123535156 L514.57080078125,61.48686599731445 L514.8338623046875,63.325164794921875 L515.0504760742188,65.43115997314453 L515.218505859375,67.70738220214844 L515.328125,70.03462219238281 L515.3582153320312,72.25190734863281 L515.279052734375,74.23210906982422 L515.0465087890625,75.85904693603516 L514.6214599609375,77.05352783203125 L513.9906616210938,77.76273345947266 L513.15625,77.99008178710938 L512.1231079101562,77.66958618164062 L510.9671936035156,76.82312774658203 L509.7900695800781,75.55399322509766 L508.8504638671875,74.32588195800781 L508.2747802734375,73.45223999023438 M513.817138671875,51.68068313598633 L513.9241943359375,51.77786636352539 L514.147216796875,51.980377197265625 L514.4025268554688,52.212364196777344 L514.6061401367188,52.397987365722656 M524.7005615234375,58.713951110839844 L524.5718994140625,58.316566467285156 L524.27099609375,57.71935272216797 L523.7505493164062,57.071693420410156 L523.0062866210938,56.614620208740234 L522.07275390625,56.46137619018555 L521.0091552734375,56.674705505371094 L519.9161987304688,57.246726989746094 L518.9303588867188,58.1441650390625 L518.2088012695312,59.27937316894531 L517.8787841796875,60.5185661315918 L518.0213012695312,61.706546783447266 L518.6294555664062,62.69485855102539 L519.6357421875,63.375404357910156 L520.92431640625,63.6713752746582 L522.36962890625,63.53977584838867 L523.8268432617188,62.98699951171875 L525.1510620117188,62.061790466308594 L526.2298583984375,60.89973449707031 L526.9878540039062,59.67975997924805 L527.408935546875,58.574066162109375 L527.5499877929688,57.70830535888672 L527.4931640625,57.147640228271484 L527.3202514648438,56.907596588134766 L527.1217651367188,57.01888656616211 L526.9558715820312,57.50091552734375 L526.8736572265625,58.371944427490234 L526.9249267578125,59.594879150390625 L527.163818359375,61.1114501953125 L527.5931396484375,62.780494689941406 L528.1781616210938,64.41539001464844 L528.7210693359375,65.67253112792969 L529.09228515625,66.41793823242188 M533.1968994140625,59.327301025390625 L533.221435546875,59.801517486572266 L533.3281860351562,60.66637420654297 L533.55078125,61.920677185058594 L533.8925170898438,63.4603271484375 L534.3165893554688,65.26056671142578 L534.778564453125,67.28399658203125 L535.218994140625,69.45979309082031 L535.5833740234375,71.66062927246094 L535.8067626953125,73.7397689819336 L535.8327026367188,75.57505798339844 L535.6249389648438,77.07339477539062 L535.1734619140625,78.19129943847656 L534.485107421875,78.90367126464844 L533.5882568359375,79.19957733154297 L532.53955078125,79.09777069091797 L531.4139404296875,78.52667236328125 L530.317138671875,77.47694396972656 L529.3599243164062,76.02163696289062 L528.6858520507812,74.63971710205078 L528.31982421875,73.66068267822266 M531.2837524414062,49.3204345703125 L531.4363403320312,49.3270378112793 L531.6902465820312,49.418792724609375 L531.954345703125,49.55580520629883 L532.1377563476562,49.698184967041016 M538.522216796875,46.88623809814453 L538.6033935546875,47.304786682128906 L538.72900390625,48.16999816894531 L538.8720092773438,49.540565490722656 L538.9954833984375,51.330135345458984 L539.1079711914062,53.43661117553711 L539.225341796875,55.70730209350586 L539.3782348632812,57.97810745239258 L539.5751342773438,60.04779815673828 L539.8023071289062,61.7507438659668 L540.0428466796875,62.95903396606445 L540.29150390625,63.61013412475586 L540.5620727539062,63.690181732177734 L540.8903198242188,63.231868743896484 L541.32666015625,62.29597473144531 L541.90966796875,61.03055191040039 L542.65185546875,59.6065788269043 L543.5233764648438,58.21760177612305 L544.4517822265625,57.020877838134766 L545.3425903320312,56.11260223388672 L546.1265258789062,55.55002975463867 L546.75048828125,55.38185119628906 L547.1986694335938,55.62218475341797 L547.493896484375,56.27327346801758 L547.690185546875,57.336158752441406 L547.8594970703125,58.69476318359375 L548.0701904296875,60.18470001220703 L548.278564453125,61.41841125488281 L548.4383544921875,62.18913650512695 M556.979736328125,57.36381530761719 L556.841796875,57.007476806640625 L556.5279541015625,56.53854751586914 L555.9860229492188,56.1236457824707 L555.2252197265625,55.99945831298828 L554.2937622070312,56.23274230957031 L553.30029296875,56.84573745727539 L552.371337890625,57.76675033569336 L551.6527709960938,58.923789978027344 L551.2607421875,60.187042236328125 L551.2438354492188,61.4135856628418 L551.6029052734375,62.45641326904297 L552.2819213867188,63.19029235839844 L553.189453125,63.514591217041016 L554.2279052734375,63.38319778442383 L555.3153076171875,62.804195404052734 L556.35107421875,61.855377197265625 L557.264892578125,60.67060089111328 L557.9993896484375,59.433258056640625 L558.51953125,58.32651901245117 L558.826416015625,57.477867126464844 L558.9520263671875,56.98206329345703 L558.9378662109375,56.87178421020508 L558.8311767578125,57.145843505859375 L558.6846923828125,57.80901336669922 L558.5565185546875,58.823883056640625 L558.511962890625,60.084571838378906 L558.5993041992188,61.481990814208984 L558.886474609375,62.85572814941406 L559.3751220703125,64.04590606689453 L560.0166015625,64.9476089477539 L560.6053466796875,65.50009155273438 L561.0062255859375,65.74446868896484 M564.165771484375,57.00814437866211 L564.150146484375,57.0526237487793 L564.15869140625,57.26652145385742 L564.2197875976562,57.74948501586914 L564.375,58.57291030883789 L564.6243896484375,59.70942687988281 L564.9808349609375,61.1412353515625 L565.42724609375,62.86799621582031 L565.9381103515625,64.87281036376953 L566.4630126953125,67.12294006347656 L566.9442138671875,69.56061553955078 L567.27978515625,72.05215454101562 L567.403564453125,74.46672058105469 L567.248779296875,76.68083953857422 L566.7974853515625,78.561767578125 L566.0711669921875,80.01565551757812 L565.1087036132812,80.93216705322266 L563.9940185546875,81.2582015991211 L562.866455078125,81.04325866699219 L561.9754638671875,80.59841918945312 L561.440185546875,80.18690490722656 M567.1032104492188,48.65019607543945 L567.1334228515625,48.761322021484375 L567.2218017578125,48.99006271362305 L567.3330078125,49.25069808959961 L567.431640625,49.45750427246094 M575.9296875,58.307857513427734 L575.8238525390625,58.018089294433594 L575.5439453125,57.574275970458984 L575.0274658203125,57.08280944824219 L574.27587890625,56.7448844909668 L573.3426513671875,56.67592239379883 L572.3184814453125,56.94023132324219 L571.330810546875,57.540836334228516 L570.4805908203125,58.438697814941406 L569.8760986328125,59.540443420410156 L569.5972290039062,60.735225677490234 L569.6802368164062,61.88385772705078 L570.1200561523438,62.858551025390625 L570.8724365234375,63.561527252197266 L571.8348388671875,63.919349670410156 L572.9198608398438,63.883480072021484 L574.0234985351562,63.443016052246094 L575.0626831054688,62.63812255859375 L575.97119140625,61.561668395996094 L576.6983032226562,60.37411880493164 L577.200439453125,59.25175476074219 L577.48876953125,58.335296630859375 L577.5980834960938,57.7042350769043 L577.5925903320312,57.40672302246094 L577.524169921875,57.446285247802734 L577.4232177734375,57.84609603881836 L577.2999267578125,58.62040328979492 L577.1818237304688,59.74250411987305 L577.1447143554688,61.17094802856445 L577.2537231445312,62.78953170776367 L577.5285034179688,64.42024230957031 L577.8449096679688,65.70606231689453 L578.0917358398438,66.48576354980469 M582.3483276367188,60.06657791137695 L582.4107666015625,60.21684265136719 L582.560791015625,60.56797790527344 L582.8051147460938,61.17500305175781 L583.1295776367188,62.03508377075195 L583.5072631835938,63.153594970703125 L583.9193115234375,64.49990844726562 L584.353271484375,66.05247497558594 L584.7769775390625,67.76667785644531 L585.1453857421875,69.56208801269531 L585.415283203125,71.32835388183594 L585.5521240234375,72.97964477539062 L585.5325927734375,74.40504455566406 L585.3584594726562,75.53096771240234 L585.0111694335938,76.31012725830078 L584.497314453125,76.7388916015625 L583.7781982421875,76.74432373046875 L582.8655395507812,76.31167602539062 L581.8255004882812,75.46578979492188 L580.9351806640625,74.5628662109375 L580.3510131835938,73.87590026855469 M582.5845336914062,47.52424240112305 L582.7527465820312,47.51725769042969 L583.0576171875,47.56740951538086 L583.3876953125,47.65141296386719 L583.6315307617188,47.7459716796875 M588.3447875976562,47.94025802612305 L588.4026489257812,48.22584533691406 L588.4868774414062,48.84367370605469 L588.5880126953125,49.86077880859375 L588.6790161132812,51.243072509765625 L588.7600708007812,52.92424011230469 L588.8352661132812,54.80437469482422 L588.9406127929688,56.765689849853516 L589.0740356445312,58.68562698364258 L589.256103515625,60.42819595336914 L589.4888305664062,61.872535705566406 L589.7880249023438,62.892311096191406 L590.1626586914062,63.40492630004883 L590.652099609375,63.385337829589844 L591.2600708007812,62.8812370300293 L591.9859619140625,62.00543975830078 L592.7936401367188,60.925289154052734 L593.6337890625,59.807762145996094 L594.4407958984375,58.79570770263672 L595.1680297851562,57.98807907104492 L595.7830200195312,57.4542121887207 L596.2841796875,57.26143264770508 L596.6819458007812,57.45705795288086 L596.9916381835938,58.072914123535156 L597.26123046875,59.107933044433594 L597.5248413085938,60.437679290771484 L597.818115234375,61.870445251464844 L598.083740234375,63.03736114501953 L598.2742919921875,63.7505989074707 M604.0855712890625,58.15571212768555 L604.1910400390625,58.367244720458984 L604.4193115234375,58.80767822265625 L604.7490844726562,59.50441360473633 L605.138671875,60.43052673339844 L605.5548095703125,61.575927734375 L605.9890747070312,62.943668365478516 L606.4589233398438,64.54492950439453 L606.9564819335938,66.37342834472656 L607.4042358398438,68.36628723144531 L607.7369384765625,70.43563842773438 L607.902099609375,72.46395111083984 L607.8773193359375,74.34552764892578 L607.670654296875,75.98285675048828 L607.276611328125,77.30441284179688 L606.6917724609375,78.26766967773438 L605.8715209960938,78.78028869628906 L604.8286743164062,78.78985595703125 L603.6340942382812,78.31655883789062 L602.604736328125,77.67557525634766 L601.9255981445312,77.13636779785156 M605.62109375,53.185272216796875 L605.6533203125,53.26123046875 L605.7720947265625,53.44385528564453 L605.9288330078125,53.662933349609375 L606.0748901367188,53.848228454589844 M617.5715942382812,59.76760482788086 L617.4030151367188,59.49454116821289 L617.0375366210938,59.086181640625 L616.4459838867188,58.6516227722168 L615.6559448242188,58.37248229980469 L614.7219848632812,58.34762954711914 L613.7489624023438,58.64665985107422 L612.850341796875,59.2593994140625 L612.1244506835938,60.12958526611328 L611.6766967773438,61.1577262878418 L611.5606689453125,62.21967315673828 L611.8099975585938,63.200016021728516 L612.4247436523438,64.00519561767578 L613.350341796875,64.53003692626953 L614.4920043945312,64.69023895263672 L615.7412719726562,64.43901062011719 L616.9632568359375,63.785037994384766 L618.0537719726562,62.802207946777344 L618.9436645507812,61.64399719238281 L619.5773315429688,60.47968292236328 L619.962890625,59.47076416015625 L620.1296997070312,58.72622299194336 L620.1198120117188,58.30030059814453 L620.0057373046875,58.192527770996094 L619.8516235351562,58.43150329589844 L619.6864624023438,59.047237396240234 L619.5643920898438,60.04465866088867 L619.5040893554688,61.37858581542969 L619.5543212890625,63.016517639160156 L619.7637939453125,64.82422637939453 L620.136962890625,66.654296875 L620.5237426757812,68.11591339111328 L620.8193969726562,69.01679992675781 M624.3091430664062,60.675479888916016 L624.399658203125,60.92603302001953 L624.5828247070312,61.424076080322266 L624.8594970703125,62.21462631225586 L625.1910400390625,63.27316665649414 L625.5375366210938,64.60025024414062 L625.8588256835938,66.17206573486328 L626.150146484375,67.96493530273438 L626.3822021484375,69.89764404296875 L626.5372924804688,71.88202667236328 L626.5718383789062,73.79456329345703 L626.4423828125,75.51614379882812 L626.1200561523438,76.95375061035156 L625.602783203125,78.04427337646484 L624.8817749023438,78.7332763671875 L623.969482421875,79.00556182861328 L622.877197265625,78.81788635253906 L621.6961059570312,78.20870208740234 L620.5706176757812,77.30201721191406 L619.7288818359375,76.44137573242188 L619.2560424804688,75.8496322631836 M628.11328125,57.228797912597656 L628.0573120117188,57.646629333496094 L628.0174560546875,58.37883377075195 L628.0458374023438,59.38044738769531 L628.1923828125,60.49945831298828 L628.4625854492188,61.666385650634766 L628.8573608398438,62.83089065551758 L629.3587646484375,63.963443756103516 L629.994873046875,64.99644470214844 L630.7554931640625,65.85578155517578 L631.5926513671875,66.47127532958984 L632.3008422851562,66.81993865966797 L632.7621459960938,66.95907592773438 M634.9832153320312,58.705875396728516 L634.7543334960938,58.67058181762695 L634.3568725585938,58.671913146972656 L633.8021240234375,58.7917366027832 L633.1783447265625,59.12678527832031 L632.5394287109375,59.728816986083984 L631.9562377929688,60.58818054199219 L631.4951171875,61.648963928222656 L631.25,62.840633392333984 L631.2676391601562,64.08719635009766 L631.58642578125,65.3305892944336 L632.1918334960938,66.5199966430664 L633.0304565429688,67.58089447021484 L634.0498657226562,68.45323944091797 L635.1907348632812,69.06986999511719 L636.387939453125,69.37519836425781 L637.5824584960938,69.3272476196289 L638.7095336914062,68.92863464355469 L639.6970825195312,68.19154357910156 L640.5004272460938,67.19793701171875 L641.1005249023438,66.05422973632812 L641.4884033203125,64.8835678100586 L641.6744384765625,63.779396057128906 L641.6937255859375,62.829288482666016 L641.6078491210938,62.07828903198242 L641.4762573242188,61.56378936767578 L641.3591918945312,61.29100799560547 L641.2752685546875,61.26534652709961 L641.2283325195312,61.47246551513672 L641.2057495117188,61.931732177734375 L641.2406005859375,62.65604782104492 L641.3587646484375,63.65157699584961 L641.5701293945312,64.89229583740234 L641.8531494140625,66.35182189941406 L642.1700439453125,67.9790267944336 L642.4432983398438,69.75635528564453 L642.6276245117188,71.63167572021484 L642.6800537109375,73.55158996582031 L642.5745239257812,75.43988037109375 L642.2864379882812,77.21495819091797 L641.8032836914062,78.78289794921875 L641.1068725585938,80.08003234863281 L640.2137451171875,81.03923797607422 L639.1499633789062,81.63819122314453 L637.967529296875,81.80514526367188 L636.7483520507812,81.52505493164062 L635.5878295898438,80.83885955810547 L634.7010498046875,80.0775375366211 L634.1787109375,79.49302673339844 M650.4977416992188,62.330570220947266 L650.2593994140625,62.0811653137207 L649.7940673828125,61.72433853149414 L649.0844116210938,61.36659240722656 L648.1996459960938,61.1820068359375 L647.2225952148438,61.26640319824219 L646.264404296875,61.63131332397461 L645.44482421875,62.25288009643555 L644.8529663085938,63.063838958740234 L644.5536499023438,63.971038818359375 L644.5821533203125,64.87660217285156 L644.9618530273438,65.70040130615234 L645.6765747070312,66.3430404663086 L646.6793212890625,66.73401641845703 L647.8551635742188,66.80644226074219 L649.0860595703125,66.53546142578125 L650.2439575195312,65.9342269897461 L651.2239990234375,65.07842254638672 L651.9583740234375,64.08768463134766 L652.4353637695312,63.1140022277832 L652.6744995117188,62.28675079345703 L652.7415161132812,61.70111083984375 L652.7099609375,61.40631103515625 L652.6203002929688,61.42192459106445 L652.5167236328125,61.77119445800781 L652.4448852539062,62.47628402709961 L652.4537963867188,63.5073356628418 L652.5943603515625,64.7983627319336 L652.9275512695312,66.31605529785156 L653.4330444335938,67.96870422363281 L654.0645751953125,69.65351104736328 L654.6278686523438,71.01917266845703 L655.0028686523438,71.87586975097656 M657.6333618164062,65.7676773071289 L657.6956787109375,66.48401641845703 L657.8364868164062,67.70118713378906 L658.0571899414062,69.32601928710938 L658.3307495117188,71.09716796875 L658.620361328125,72.90827178955078 L658.8840942382812,74.6469497680664 L659.0874633789062,76.23051452636719 L659.185791015625,77.54141235351562 L659.1395263671875,78.4975357055664 L658.931640625,79.0634765625 L658.58251953125,79.2488021850586 L658.1190185546875,78.98373413085938 L657.597900390625,78.25991821289062 L657.0797729492188,77.1307601928711 L656.6764526367188,76.00621032714844 L656.4345703125,75.18922424316406 M656.5070190429688,57.28806686401367 L656.5143432617188,57.257179260253906 L656.5708618164062,57.23400115966797 L656.6520385742188,57.22414779663086 L656.7332153320312,57.23323059082031 M663.98486328125,62.522125244140625 L663.9453125,62.55830001831055 L663.9208984375,62.7131462097168 L663.94091796875,63.07431411743164 L664.0654907226562,63.704952239990234 L664.3325805664062,64.60743713378906 L664.7771606445312,65.73999786376953 L665.3945922851562,67.06584930419922 L666.1676635742188,68.53968811035156 L667.0172119140625,70.12772369384766 L667.8448486328125,71.77371978759766 L668.546630859375,73.39212036132812 L669.0552368164062,74.88359069824219 L669.2982788085938,76.173583984375 L669.2469482421875,77.20370483398438 L668.9000244140625,77.95770263671875 L668.2222290039062,78.35563659667969 L667.2623291015625,78.3515396118164 L666.1450805664062,77.94873809814453 L665.1793212890625,77.40864562988281 L664.5525512695312,76.95463562011719 M669.135986328125,63.97797775268555 L669.1080322265625,64.5375747680664 L669.1036987304688,65.48258972167969 L669.16552734375,66.71968841552734 L669.3474731445312,68.01751708984375 L669.6414794921875,69.24298095703125 L670.009521484375,70.2886962890625 L670.3327026367188,71.02474975585938 L670.5431518554688,71.42407989501953 M670.46435546875,57.06340789794922 L670.483154296875,57.13369369506836 L670.5518798828125,57.3560791015625 L670.692626953125,57.80453109741211 L670.9094848632812,58.498435974121094 L671.198974609375,59.41482925415039 L671.55859375,60.51742935180664 L671.966552734375,61.75983810424805 L672.3966064453125,63.10874557495117 L672.8199462890625,64.50822448730469 L673.2061157226562,65.87156677246094 L673.5560913085938,67.1192855834961 L673.8676147460938,68.171142578125 L674.1129150390625,68.95759582519531 L674.2775268554688,69.47918701171875 L674.376708984375,69.727783203125 L674.4589233398438,69.69276428222656 L674.6096801757812,69.35576629638672 L674.9061889648438,68.69355010986328 L675.387939453125,67.7151107788086 L676.0732421875,66.533203125 L676.9404907226562,65.28077697753906 L677.9442749023438,64.10615539550781 L678.989990234375,63.119544982910156 L679.97509765625,62.399269104003906 L680.81982421875,61.990108489990234 L681.4774780273438,61.93075942993164 L681.9451904296875,62.21908950805664 L682.2693481445312,62.84601974487305 L682.4791259765625,63.762882232666016 L682.6222534179688,64.88890075683594 L682.7522583007812,66.13961791992188 L682.9267578125,67.4150390625 L683.1856689453125,68.58438873291016 L683.5438232421875,69.55316162109375 L683.8849487304688,70.20809936523438 L684.1283569335938,70.54182434082031 M686.1329345703125,51.51979064941406 L686.2565307617188,51.76504898071289 L686.4578247070312,52.31855392456055 L686.71435546875,53.266414642333984 L686.9723510742188,54.5914192199707 L687.2239379882812,56.234397888183594 L687.461181640625,58.09971618652344 L687.6913452148438,60.07279968261719 L687.9239501953125,62.02668380737305 L688.1898193359375,63.84843063354492 L688.5137939453125,65.41735076904297 L688.9181518554688,66.6375961303711 L689.4008178710938,67.43262481689453 L689.9586791992188,67.76287078857422 L690.5752563476562,67.62385559082031 L691.26416015625,67.05574035644531 L692.031005859375,66.12117004394531 L692.8873901367188,64.93872833251953 L693.832275390625,63.62266159057617 L694.8469848632812,62.31922149658203 L695.8671875,61.16440963745117 L696.8068237304688,60.26850509643555 L697.575439453125,59.69807052612305 L698.1375122070312,59.523014068603516 L698.51611328125,59.7642707824707 L698.77783203125,60.44415283203125 L698.997802734375,61.53372573852539 L699.2323608398438,62.93767166137695 L699.5899047851562,64.5359115600586 L700.2091674804688,66.2397689819336 L700.8828125,67.64271545410156 L701.436279296875,68.55406951904297 " fill="none" stroke="white" stroke-linecap="round" stroke-width="2" /></svg>